<?xml version="1.0" standalone="no"?>
<!DOCTYPE svg PUBLIC "-//W3C//DTD SVG 20010904//EN"
 "http://www.w3.org/TR/2001/REC-SVG-20010904/DTD/svg10.dtd">
<svg version="1.0" xmlns="http://www.w3.org/2000/svg"
 width="173.000000pt" height="173.000000pt" viewBox="0 0 173.000000 173.000000"
 preserveAspectRatio="xMidYMid meet">
<metadata>
Created by potrace 1.14, written by Peter Selinger 2001-2017
</metadata>
<g transform="translate(0.000000,173.000000) scale(0.100000,-0.100000)"
fill="#000000" stroke="none">
<path d="M456 1663 c-33 -61 -34 -68 -21 -93 24 -47 88 -102 150 -131 108 -50
105 -51 164 33 50 71 50 73 28 82 -75 29 -151 72 -214 120 l-72 56 -35 -67z"/>
<path d="M1190 1700 c-59 -52 -152 -109 -212 -131 l-57 -21 50 -75 c58 -85 56
-85 164 -33 66 31 97 56 139 112 l27 36 -36 71 c-19 39 -36 71 -38 71 -1 0
-18 -14 -37 -30z"/>
<path d="M826 1482 c-38 -119 -52 -142 -85 -142 -65 0 -87 -23 -110 -115 -12
-47 -8 -24 -71 -380 -28 -154 -52 -291 -55 -305 -6 -23 -8 -38 -20 -115 -2
-16 -6 -39 -8 -50 -15 -67 -49 -277 -46 -280 3 -2 35 -5 72 -6 l68 -2 -3 -41
-3 -41 285 0 285 0 0 42 0 42 69 0 c37 0 71 2 73 5 4 4 -25 197 -43 291 -2 11
-7 34 -9 50 -8 47 -45 247 -50 275 -3 14 -7 36 -9 50 -3 14 -8 43 -11 65 -3
22 -7 47 -10 55 -2 8 -6 31 -9 50 -13 84 -67 342 -77 364 -12 26 -47 46 -82
46 -37 0 -38 1 -96 133 -16 37 -31 67 -33 67 -2 0 -11 -26 -22 -58z"/>
</g>
</svg>
